<svg width="241" height="47" viewBox="0 0 241 47" fill="none" xmlns="http://www.w3.org/2000/svg">
<path d="M54.2756 36V9.81818H64.6051C66.5909 9.81818 68.2827 10.1974 69.6804 10.956C71.0781 11.706 72.1435 12.75 72.8764 14.0881C73.6179 15.4176 73.9886 16.9517 73.9886 18.6903C73.9886 20.429 73.6136 21.9631 72.8636 23.2926C72.1136 24.6222 71.027 25.6577 69.6037 26.3991C68.1889 27.1406 66.4759 27.5114 64.4645 27.5114H57.8807V23.0753H63.5696C64.6349 23.0753 65.5128 22.892 66.2031 22.5256C66.902 22.1506 67.4219 21.6349 67.7628 20.9787C68.1122 20.3139 68.2869 19.5511 68.2869 18.6903C68.2869 17.821 68.1122 17.0625 67.7628 16.4148C67.4219 15.7585 66.902 15.2514 66.2031 14.8935C65.5043 14.527 64.6179 14.3438 63.544 14.3438H59.8111V36H54.2756ZM90.0742 27.6392V16.3636H95.5202V36H90.2915V32.4332H90.087C89.6438 33.5838 88.9066 34.5085 87.8754 35.2074C86.8526 35.9062 85.604 36.2557 84.1296 36.2557C82.8171 36.2557 81.6623 35.9574 80.6651 35.3608C79.668 34.7642 78.8881 33.9162 78.3256 32.8168C77.7717 31.7173 77.4904 30.4006 77.4819 28.8665V16.3636H82.9279V27.8949C82.9364 29.054 83.2475 29.9702 83.8612 30.6435C84.4748 31.3168 85.2972 31.6534 86.3285 31.6534C86.9847 31.6534 87.5984 31.5043 88.1694 31.206C88.7404 30.8991 89.2006 30.4474 89.5501 29.8509C89.908 29.2543 90.0827 28.517 90.0742 27.6392ZM105.322 9.81818V36H99.8764V9.81818H105.322ZM126.023 21.9631L121.037 22.2699C120.952 21.8437 120.769 21.4602 120.488 21.1193C120.206 20.7699 119.836 20.4929 119.375 20.2884C118.924 20.0753 118.382 19.9688 117.752 19.9688C116.908 19.9688 116.196 20.1477 115.617 20.5057C115.037 20.8551 114.748 21.3239 114.748 21.9119C114.748 22.3807 114.935 22.777 115.31 23.1009C115.685 23.4247 116.328 23.6847 117.24 23.8807L120.794 24.5966C122.703 24.9886 124.127 25.6193 125.064 26.4886C126.002 27.358 126.471 28.5 126.471 29.9148C126.471 31.2017 126.091 32.331 125.333 33.3026C124.583 34.2741 123.551 35.0327 122.239 35.5781C120.935 36.1151 119.431 36.3835 117.726 36.3835C115.127 36.3835 113.056 35.8423 111.513 34.7599C109.979 33.669 109.08 32.1861 108.816 30.3111L114.172 30.0298C114.334 30.8224 114.726 31.4276 115.348 31.8452C115.971 32.2543 116.767 32.4588 117.739 32.4588C118.694 32.4588 119.461 32.2756 120.04 31.9091C120.628 31.5341 120.926 31.0526 120.935 30.4645C120.926 29.9702 120.718 29.5653 120.309 29.25C119.9 28.9261 119.269 28.679 118.417 28.5085L115.016 27.831C113.098 27.4474 111.671 26.7827 110.733 25.8366C109.804 24.8906 109.34 23.6847 109.34 22.2188C109.34 20.9574 109.681 19.8707 110.363 18.9588C111.053 18.0469 112.02 17.3438 113.265 16.8494C114.517 16.3551 115.983 16.108 117.662 16.108C120.142 16.108 122.094 16.6321 123.517 17.6804C124.949 18.7287 125.784 20.1562 126.023 21.9631ZM138.849 36.3835C136.829 36.3835 135.09 35.9744 133.633 35.1562C132.184 34.3295 131.067 33.1619 130.283 31.6534C129.499 30.1364 129.107 28.3423 129.107 26.2713C129.107 24.2514 129.499 22.4787 130.283 20.9531C131.067 19.4276 132.171 18.2386 133.594 17.3864C135.026 16.5341 136.705 16.108 138.631 16.108C139.927 16.108 141.133 16.3168 142.249 16.7344C143.374 17.1435 144.354 17.7614 145.19 18.5881C146.033 19.4148 146.69 20.4545 147.158 21.7074C147.627 22.9517 147.862 24.4091 147.862 26.0795V27.5753H131.281V24.2003H142.735C142.735 23.4162 142.565 22.7216 142.224 22.1165C141.883 21.5114 141.41 21.0384 140.805 20.6974C140.208 20.348 139.513 20.1733 138.721 20.1733C137.894 20.1733 137.161 20.3651 136.522 20.7486C135.891 21.1236 135.397 21.6307 135.039 22.2699C134.681 22.9006 134.498 23.6037 134.489 24.3793V27.5881C134.489 28.5597 134.668 29.3991 135.026 30.1065C135.393 30.8139 135.908 31.3594 136.573 31.7429C137.238 32.1264 138.026 32.3182 138.938 32.3182C139.543 32.3182 140.097 32.233 140.6 32.0625C141.103 31.892 141.533 31.6364 141.891 31.2955C142.249 30.9545 142.522 30.5369 142.71 30.0426L147.746 30.375C147.491 31.5852 146.967 32.642 146.174 33.5455C145.39 34.4403 144.376 35.1392 143.131 35.642C141.896 36.1364 140.468 36.3835 138.849 36.3835ZM151.518 36V9.81818H161.847C163.833 9.81818 165.525 10.1974 166.923 10.956C168.32 11.706 169.386 12.75 170.119 14.0881C170.86 15.4176 171.231 16.9517 171.231 18.6903C171.231 20.429 170.856 21.9631 170.106 23.2926C169.356 24.6222 168.269 25.6577 166.846 26.3991C165.431 27.1406 163.718 27.5114 161.707 27.5114H155.123V23.0753H160.812C161.877 23.0753 162.755 22.892 163.445 22.5256C164.144 22.1506 164.664 21.6349 165.005 20.9787C165.354 20.3139 165.529 19.5511 165.529 18.6903C165.529 17.821 165.354 17.0625 165.005 16.4148C164.664 15.7585 164.144 15.2514 163.445 14.8935C162.746 14.527 161.86 14.3438 160.786 14.3438H157.053V36H151.518ZM183.28 36.3835C181.294 36.3835 179.577 35.9616 178.128 35.1179C176.688 34.2656 175.575 33.081 174.791 31.5639C174.007 30.0384 173.615 28.2699 173.615 26.2585C173.615 24.2301 174.007 22.4574 174.791 20.9403C175.575 19.4148 176.688 18.2301 178.128 17.3864C179.577 16.5341 181.294 16.108 183.28 16.108C185.266 16.108 186.979 16.5341 188.419 17.3864C189.868 18.2301 190.984 19.4148 191.768 20.9403C192.553 22.4574 192.945 24.2301 192.945 26.2585C192.945 28.2699 192.553 30.0384 191.768 31.5639C190.984 33.081 189.868 34.2656 188.419 35.1179C186.979 35.9616 185.266 36.3835 183.28 36.3835ZM183.305 32.1648C184.209 32.1648 184.963 31.9091 185.568 31.3977C186.173 30.8778 186.629 30.1705 186.936 29.2756C187.251 28.3807 187.409 27.3622 187.409 26.2202C187.409 25.0781 187.251 24.0597 186.936 23.1648C186.629 22.2699 186.173 21.5625 185.568 21.0426C184.963 20.5227 184.209 20.2628 183.305 20.2628C182.393 20.2628 181.626 20.5227 181.004 21.0426C180.391 21.5625 179.926 22.2699 179.611 23.1648C179.304 24.0597 179.151 25.0781 179.151 26.2202C179.151 27.3622 179.304 28.3807 179.611 29.2756C179.926 30.1705 180.391 30.8778 181.004 31.3977C181.626 31.9091 182.393 32.1648 183.305 32.1648ZM196.486 36V16.3636H201.932V36H196.486ZM199.222 13.8324C198.412 13.8324 197.717 13.5639 197.138 13.027C196.567 12.4815 196.281 11.8295 196.281 11.071C196.281 10.321 196.567 9.67756 197.138 9.14062C197.717 8.59517 198.412 8.32244 199.222 8.32244C200.031 8.32244 200.722 8.59517 201.293 9.14062C201.872 9.67756 202.162 10.321 202.162 11.071C202.162 11.8295 201.872 12.4815 201.293 13.027C200.722 13.5639 200.031 13.8324 199.222 13.8324ZM211.74 24.6477V36H206.294V16.3636H211.485V19.8281H211.715C212.15 18.6861 212.878 17.7827 213.901 17.1179C214.924 16.4446 216.164 16.108 217.621 16.108C218.985 16.108 220.174 16.4062 221.188 17.0028C222.202 17.5994 222.99 18.4517 223.553 19.5597C224.115 20.6591 224.397 21.9716 224.397 23.4972V36H218.951V24.4688C218.959 23.267 218.652 22.3295 218.03 21.6562C217.408 20.9744 216.551 20.6335 215.461 20.6335C214.728 20.6335 214.08 20.7912 213.517 21.1065C212.963 21.4219 212.529 21.8821 212.213 22.4872C211.907 23.0838 211.749 23.804 211.74 24.6477ZM239.134 16.3636V20.4545H227.308V16.3636H239.134ZM229.993 11.6591H235.439V29.9659C235.439 30.4687 235.516 30.8608 235.669 31.142C235.822 31.4148 236.036 31.6065 236.308 31.7173C236.589 31.8281 236.913 31.8835 237.28 31.8835C237.536 31.8835 237.791 31.8622 238.047 31.8196C238.303 31.7685 238.499 31.7301 238.635 31.7045L239.491 35.7571C239.219 35.8423 238.835 35.9403 238.341 36.0511C237.847 36.1705 237.246 36.2429 236.538 36.2685C235.226 36.3196 234.075 36.1449 233.087 35.7443C232.107 35.3437 231.344 34.7216 230.798 33.8778C230.253 33.0341 229.984 31.9687 229.993 30.6818V11.6591Z" fill="white"/>
<g clip-path="url(#clip0_13_19)">
<path d="M23.5 47C36.4787 47 47 36.4787 47 23.5C47 10.5213 36.4787 0 23.5 0C10.5213 0 0 10.5213 0 23.5C0 36.4787 10.5213 47 23.5 47Z" fill="#E16B5A"/>
<path d="M40.0168 17.2578C38.609 10.6484 29.1114 6.97657 23.4827 12.4844C17.8541 6.97657 8.35609 10.6484 6.94866 17.2578C5.05214 26.1662 14.6879 36.3516 23.4827 40.0234C32.2773 36.3516 41.913 26.1662 40.0168 17.2578Z" fill="#992B1F"/>
<path d="M20.9124 33.7812C20.5592 33.7812 20.2548 33.5407 20.1905 33.1919L18.0829 21.7749L16.0872 26.7988C15.9701 27.0944 15.6774 27.2842 15.3576 27.2618C15.04 27.2405 14.7719 27.0195 14.693 26.7114L14.0199 24.0761L13.4596 24.9864C13.326 25.2034 13.0891 25.3359 12.8343 25.3359H4.38898C3.9836 25.3359 3.6546 25.0069 3.6546 24.6016C3.6546 24.1962 3.9836 23.8672 4.38898 23.8672H12.4238L13.6777 21.83C13.8319 21.5778 14.1216 21.4463 14.4132 21.4885C14.7047 21.5322 14.9416 21.7467 15.0146 22.032L15.557 24.1565L17.6599 18.8672C17.781 18.5635 18.0876 18.3755 18.4141 18.4078C18.7398 18.4401 19.0049 18.6836 19.0644 19.0056L20.8074 28.4526L21.6538 22.3096C21.6989 21.9835 21.9552 21.7272 22.2809 21.6824C22.607 21.6383 22.9231 21.815 23.0546 22.1175L24.2358 24.8314L24.6519 23.9281C24.7716 23.6674 25.0319 23.5007 25.3187 23.5007H44.4124C44.8178 23.5007 45.1468 23.8297 45.1468 24.2351C45.1468 24.6405 44.8178 24.9695 44.4124 24.9695H25.789L24.8839 27.0239C24.7642 27.2842 24.5031 27.5398 24.2171 27.5398C24.2142 27.5398 24.212 27.5398 24.2094 27.5398C23.9204 27.5398 23.6593 27.275 23.5437 27.0099L22.7517 25.1468L21.6398 33.1827C21.5906 33.54 21.2891 33.7831 20.9289 33.7831C20.9234 33.7812 20.9179 33.7812 20.9124 33.7812Z" fill="#F5F5F5"/>
</g>
<defs>
<clipPath id="clip0_13_19">
<rect width="47" height="47" fill="white"/>
</clipPath>
</defs>
</svg>
